<?xml version="1.0" encoding="utf-8"?>
<!-- Uploaded to: SVG Repo, www.svgrepo.com, Generator: SVG Repo Mixer Tools -->
<svg width="800px" height="800px" viewBox="0 0 1024 1024" class="icon"  version="1.1" xmlns="http://www.w3.org/2000/svg"><path d="M128.416 929.176a381.336 81.488 0 1 0 762.672 0 381.336 81.488 0 1 0-762.672 0Z" fill="#B8CBCD" /><path d="M680.408 762.672h-352l-40 168c0 25.128 102.224 45.448 216 45.448s216-20.32 216-45.448l-40-168z" fill="#B2EDA6" /><path d="M504.408 992.12c-9.48 0-232-0.696-232-61.448 0-1.248 0.152-2.496 0.44-3.704l40-168a16 16 0 0 1 15.56-12.296h352a16 16 0 0 1 15.56 12.296l40 168c0.288 1.216 0.44 2.456 0.44 3.704 0 60.744-222.52 61.448-232 61.448z m-199.256-62.688c13.12 11.776 85.68 30.688 199.256 30.688s186.144-18.912 199.256-30.688l-35.896-150.76h-326.72l-35.896 150.76z" fill="#3C663E" /><path d="M504.408 953.336c-9.48 0-228-0.256-228-61 0-8.832 3.16-16.44 12-16.44a16 16 0 0 1 15.856 13.88c10.344 11.68 83.68 31.568 200.144 31.568s189.8-19.88 200.144-31.568a16 16 0 0 1 15.856-13.88c8.832 0 8.664 8.944 8.664 17.776 0 60.744-215.184 59.664-224.664 59.664z" fill="#3C663E" /><path d="M768.944 380.776c-9.52-25.608 0-46.448 0-46.448s-97.352-84.848-111.944-99.44c-14.584-14.584-14.288-26.792-25.008-34.536-10.72-7.744-63.12-23.824-65.504-26.2-2.384-2.384 15.128-20.36 24.536-29.776-7.152-5.36-50.144-5.36-59.08-5.36-8.928 0-10.152-53.256-10.152-80.344-22.328 0-49.104 74.096-49.104 74.096-70.56 0-186.672 96.464-186.672 264.384 0 66.992 42.872 184 58.944 241.16 3.824 13.568 7.992 33.016 8.832 44.36 101.208 0.296 200 0 304 0 0.984-13.336-1.4-31.376-1.4-51.208 0-82.768-157.8-223.896-157.8-234.616 5.36 5.36 26.8 10.128 35.728 10.128 36.32 0 51.808-16.672 80.984-16.672 29.176 0 38.112 46.448 82.768 46.448 44.664 0 49.432-20.84 53-23.824 21.456-14.288 20.848-25.608 17.872-32.152z" fill="#B2EDA6" /><path d="M454.496 698.8c-33.496 0-66.984-0.032-100.736-0.128a16 16 0 0 1-15.904-14.824c-0.68-9.128-4.232-26.84-8.272-41.2-3.608-12.832-8.536-28.568-14.248-46.792-19.12-61.016-45.296-144.576-45.296-198.704 0-163.496 109.512-270.48 191.352-279.736 12.392-31.656 34.104-74.744 60.424-74.744a16 16 0 0 1 16 16c0 35.448 1.888 55.232 3.576 64.4 48.616 0.536 54.96 5.296 59.248 8.504a16 16 0 0 1 1.712 24.112c-4.4 4.4-7.904 8.016-10.696 10.976 24.168 8.552 41.864 15.04 49.712 20.712 8.344 6.024 12.272 13.464 15.752 20.032 2.848 5.4 5.544 10.504 11.2 16.16 11.232 11.232 77.616 69.472 111.152 98.696 5.336 4.656 6.984 12.272 4.04 18.712-0.192 0.472-6.408 15.336 0.288 33.8 4.464 10.336 6.952 29.8-21.464 49.84-5.184 8.056-18.768 28.128-64.24 28.128-31.472 0-49.264-18.36-62.256-31.76-8.832-9.104-14.536-14.68-20.504-14.68-11.096 0-20.136 3.136-30.6 6.768-11.824 4.104-25.032 8.688-43.024 9.696 63.992 69.536 130.712 148.032 130.712 208.688 0 8.36 0.448 16.424 0.88 24.224 0.56 10.136 1.096 19.712 0.472 28.16a15.984 15.984 0 0 1-15.952 14.824c-34.96 0-69.336 0.032-103.416 0.064-33.512 0.04-66.72 0.072-99.912 0.072z m-86.68-32.096c62.368 0.152 123.96 0.088 186.544 0.032 28.88-0.024 57.976-0.056 87.464-0.064-0.136-2.912-0.304-5.984-0.488-9.216a459.856 459.856 0 0 1-0.928-26c0-54.608-85.272-146.968-126.248-191.352-26.728-28.952-31.544-34.168-31.544-43.264a15.992 15.992 0 0 1 26.752-11.84c4.024 2.448 18.656 5.968 24.968 5.968 16.456 0 27.84-3.952 39.896-8.136 12.096-4.2 24.592-8.536 41.088-8.536 19.824 0 32.392 12.968 43.48 24.408 11.472 11.832 21.368 22.04 39.288 22.04 28.704 0 34.68-9.312 37.544-13.784 1.28-2 2.736-4.264 5.2-6.32 0.44-0.368 0.896-0.712 1.376-1.032 11.408-7.6 12.24-12.056 12.24-12.096-0.152-0.344-0.376-0.816-0.504-1.168a82.456 82.456 0 0 1-3.336-46.792c-23.608-20.624-92.432-80.872-104.92-93.36-9.064-9.064-13.576-17.6-16.872-23.832-2.64-5-4.008-7.472-6.184-9.048-4.936-3.496-29.832-12.296-41.784-16.528-18.8-6.648-22.176-7.848-25.656-11.312-10.136-10.136-2.824-22.088 3.536-29.936a600.08 600.08 0 0 0-26.776-0.52c-16.328 0-23.312-14.008-25.416-58.448a296.992 296.992 0 0 0-18.792 41.632 15.984 15.984 0 0 1-15.048 10.56c-59.56 0-170.672 85.312-170.672 248.384 0 49.24 25.336 130.096 43.832 189.136 5.784 18.464 10.776 34.4 14.512 47.688 2.6 9.192 5.52 21.592 7.448 32.736z" fill="#3C663E" /><path d="M388.4 695.928a16.016 16.016 0 0 1-15.4-11.672c-4.184-14.912-10.904-35.056-18.672-58.376-22.24-66.736-49.92-149.8-49.92-201.48 0-176.192 90.904-298.984 172.496-298.984a16 16 0 1 1 0 32c-57.288 0-140.496 104-140.496 266.984 0 46.488 27.904 130.216 48.28 191.36 7.896 23.704 14.72 44.176 19.12 59.832a16 16 0 0 1-15.408 20.336z" fill="#FFFFFF" /><path d="M768.408 722.672c0 22.088-13.024 40-29.096 40H285.504c-16.072 0-29.096-17.912-29.096-40s13.024-40 29.096-40h453.816c16.064 0 29.088 17.912 29.088 40z" fill="#B2EDA6" /><path d="M739.312 778.672H285.504c-25.288 0-45.096-24.6-45.096-56s19.808-56 45.096-56h453.816c25.288 0 45.096 24.6 45.096 56s-19.816 56-45.104 56z m-453.808-80c-5.336 0-13.096 9.352-13.096 24 0 14.656 7.76 24 13.096 24h453.816c5.336 0 13.096-9.344 13.096-24 0-14.648-7.76-24-13.096-24H285.504zM520.568 273.216a32.008 32.008 0 0 0 63.664-6.592l-63.664 6.592z" fill="#3C663E" /><path d="M502.032 1002.672c-56.304 0-240-5.008-240-69.448 0-2.04 0.256-4.08 0.776-6.056l34.544-132.504h-8.944c-38.28 0-64-37.232-64-72s25.72-72 64-72h34.2l-0.736-2.608c-3.576-12.72-8.496-28.4-14.176-46.56-19.272-61.504-45.664-145.744-45.664-201.096 0-167.4 107.704-274.264 193.64-287.088 20.128-50.048 42.344-75.392 66.136-75.392a24 24 0 0 1 24 24c0 28.168 1.2 46.168 2.48 56.504 41.336 0.848 50.528 5.04 57.152 10.008a24 24 0 0 1 2.56 36.176l-1.952 1.96c19.232 6.936 32.68 12.296 40 17.584 9.848 7.12 14.448 15.808 18.136 22.784 2.68 5.064 4.984 9.44 9.792 14.24 11.496 11.488 83.84 74.872 110.752 98.32a24.008 24.008 0 0 1 6.056 28.072c-0.048 0.136-4.952 12.384 0.472 27.568 4.44 10.528 9.4 34.792-23.064 58.384-9.184 13.576-26.616 30.48-70.104 30.48-34.856 0-54.808-20.576-68.008-34.192-5.288-5.456-11.872-12.248-14.76-12.248-9.744 0-17.792 2.792-27.976 6.328-8.224 2.848-17.704 6.136-29.232 8.232 61.6 67.728 122.296 142.52 122.296 202.6 0 6.48 0.104 11.56 0.192 15.952h47.808c38.872 0 64 28.264 64 72 0 46.352-26.912 80-64 80h-17.456l30.4 124.88c0.456 1.856 0.68 3.76 0.68 5.672 0 64.44-183.696 69.448-240 69.448z m-189.952-74.224c20.096 10.76 90.152 26.224 189.952 26.224 100.064 0 170.24-15.552 190.12-26.312l-35.064-144.008a23.96 23.96 0 0 1 4.456-20.504 23.976 23.976 0 0 1 18.864-9.168h48c8.968 0 16-14.056 16-32 0-24-10.016-24-16-24h-72a24.008 24.008 0 0 1-23.952-25.568c0.472-7.192 0.352-12.28 0.176-19.984a769.76 769.76 0 0 1-0.232-18.4c0-51.48-86.984-145.696-124.128-185.928-27.872-30.184-33.672-36.464-33.672-48.688a24 24 0 0 1 39.24-18.536c4.344 2.056 16.288 4.664 20.488 4.664 15.112 0 25.376-3.568 37.272-7.688 12.128-4.208 25.872-8.984 43.712-8.984 23.2 0 37.632 14.88 49.224 26.84C676.68 408.92 684.224 416 698.088 416c24.336 0 28.712-6.824 30.808-10.104 1.44-2.24 3.4-5.304 6.808-8.144 0.664-0.552 1.352-1.064 2.072-1.544 4.168-2.776 6.52-4.928 7.8-6.296a90.624 90.624 0 0 1-3.656-44.072c-26.84-23.456-89.656-78.512-101.88-90.736-9.92-9.92-14.76-19.072-18.288-25.752-1.424-2.688-3.04-5.744-3.808-6.296-5.032-3.184-28.496-11.488-39.768-15.472-20.232-7.16-23.88-8.448-28.632-13.192-9.28-9.272-8.504-19.464-4.832-28.008a764.76 764.76 0 0 0-12.752-0.104c-17.912 0-26.68-11.424-30.792-37a281.072 281.072 0 0 0-5.888 14.912 24.024 24.024 0 0 1-22.568 15.832c-55.208 0-162.672 84.848-162.672 240.384 0 48.008 25.128 128.2 43.472 186.744 5.808 18.52 10.816 34.52 14.576 47.92l1.416 4.976c3.128 10.944 5.824 20.4 6.832 32.648a24.016 24.016 0 0 1-23.92 25.976h-64c-8.472 0-16 13.424-16 24s7.528 24 16 24h40a24.008 24.008 0 0 1 23.224 30.056l-39.56 151.72z" fill="#3C663E" /></svg>