<?xml version="1.0" encoding="utf-8"?>

<!DOCTYPE svg PUBLIC "-//W3C//DTD SVG 1.1//EN" "http://www.w3.org/Graphics/SVG/1.1/DTD/svg11.dtd">
<!-- Uploaded to: SVG Repo, www.svgrepo.com, Generator: SVG Repo Mixer Tools -->
<svg height="800px" width="800px" version="1.1" id="_x32_" xmlns="http://www.w3.org/2000/svg" xmlns:xlink="http://www.w3.org/1999/xlink" 
	 viewBox="0 0 512 512"  xml:space="preserve">
<style type="text/css">
	.st0{fill:#000000;}
</style>
<g>
	<path class="st0" d="M100.807,213.441c-5.014,0-9.08,4.066-9.08,9.08c0,5.014,4.066,9.07,9.08,9.07c5.015,0,9.08-4.056,9.08-9.07
		C109.887,217.507,105.822,213.441,100.807,213.441z"/>
	<path class="st0" d="M449.433,436.201c1.488-3.446,2.367-7.492,2.357-11.907c0.01-4.295-0.738-8.311-2.107-11.887
		c-1.188-3.127-2.817-5.914-4.685-8.331c-3.276-4.245-7.212-7.412-11.038-10.039c-2.878-1.978-5.724-3.647-8.292-5.185
		c-3.866-2.277-7.122-4.325-8.84-5.973c-0.859-0.8-1.329-1.448-1.538-1.848c-0.08-0.15-0.11-0.25-0.14-0.36l-0.17-1.528v-0.02
		c-0.07-0.729-1.628-15.723-1.628-37.69c0-25.023,2.038-59.126,10.349-91.332c5.963-23.145,8.621-44.632,8.621-64.411
		c0.01-26.321-4.735-49.627-12.627-69.695c-11.837-30.128-30.736-52.952-51.185-68.277c-10.229-7.672-20.848-13.465-31.256-17.391
		c-10.409-3.916-20.608-5.964-30.098-5.964c-0.7,0-1.389,0.031-2.078,0.06c-1.588-2.168-3.806-4.955-6.644-7.921
		c-2.996-3.137-6.662-6.464-11.028-9.38c-4.375-2.918-9.47-5.424-15.273-6.723c-1.219-0.27-2.448-0.4-3.647-0.4
		c-2.138-0.01-4.175,0.409-6.024,1.079c-3.486,1.278-6.303,3.346-8.781,5.704c-4.314,4.175-7.781,9.389-10.898,14.983
		c-4.645,8.372-8.361,17.601-10.998,24.834c-1.319,3.636-2.358,6.752-3.077,8.97c-7.831,3.836-15.463,8.921-22.875,14.644
		c-12.726,9.83-24.774,21.577-35.402,32.355c-5.295,5.384-10.239,10.539-14.664,15.074c-4.435,4.505-8.372,8.41-11.548,11.228
		l-0.16,0.15l-0.16,0.159c0,0-0.958,0.95-2.656,2.637c-5.965,5.904-20.998,20.768-35.612,35.053
		c-7.312,7.152-14.514,14.155-20.408,19.808c-2.937,2.817-5.554,5.304-7.682,7.292c-2.118,1.977-3.786,3.486-4.645,4.215
		c-4.186,3.526-7.391,7.512-9.529,11.787c-2.138,4.286-3.167,8.851-3.157,13.276c0,5.194,1.369,10.149,3.646,14.564
		c3.427,6.634,8.821,12.147,15.294,16.103c6.493,3.946,14.146,6.374,22.237,6.374c1.468,0,2.956-0.1,4.435-0.27
		c0.359,1.987,0.979,3.896,1.838,5.674c2.038,4.175,5.234,7.701,9.27,10.298c4.035,2.588,8.971,4.216,14.344,4.206
		c4.745,0.009,9.77-1.299,14.485-4.046c6.812-3.966,13.126-8.682,20.427-12.507c7.323-3.826,15.494-6.862,26.203-7.651
		c7.212-0.52,14.324-1.459,21.146-2.758c-0.189,3.016-0.698,5.904-1.548,8.801c-1.828,6.323-5.234,12.736-9.62,19.829
		c-6.542,10.648-15.214,22.706-22.395,38.359c-7.183,15.633-12.746,34.892-13.276,59.606v0.21c0,0.24-0.03,0.39-0.08,0.55
		c-0.09,0.3-0.3,0.779-0.979,1.548c-0.599,0.659-1.528,1.478-2.757,2.388c-2.157,1.578-5.175,3.346-8.51,5.344
		c-5.015,3.018-10.849,6.564-15.783,11.998c-2.457,2.706-4.666,5.944-6.224,9.73c-1.559,3.775-2.427,8.07-2.427,12.696
		c-0.02,5.903,1.558,11.098,4.016,15.184c1.838,3.056,4.096,5.494,6.393,7.392c1.468,1.209,2.936,2.178,4.354,3.016l-11.357,19.13
		V512h315.051v-42.983l-11.348-19.11c2.148-1.268,4.435-2.926,6.613-5.114C445.876,442.535,447.954,439.678,449.433,436.201z
		 M190.39,337.467c6.294-17.681,15.504-30.907,23.715-43.873c4.096-6.473,7.951-12.906,10.868-19.878
		c2.918-6.942,4.835-14.505,4.825-22.756c0-0.57-0.03-1.14-0.05-1.698c1.488-0.46,2.957-0.949,4.396-1.448
		c6.133-2.148,11.696-4.676,16.502-7.672c4.805-3.008,8.91-6.454,11.887-10.868l-13.465-8.981c-1.119,1.729-3.467,3.966-6.973,6.124
		c-5.224,3.276-12.866,6.373-21.697,8.72c-8.86,2.337-18.93,3.996-29.168,4.725c-13.266,0.929-23.935,4.915-32.565,9.47
		c-8.64,4.555-15.394,9.609-21.007,12.826c-2.448,1.409-4.525,1.858-6.384,1.878c-1.398,0-2.707-0.289-3.916-0.769
		c-1.797-0.729-3.346-1.987-4.335-3.316c-1.019-1.339-1.379-2.668-1.369-3.437c0.01-0.568,0.111-0.899,0.41-1.368l-0.62-0.41
		c1.079-0.639,2.148-1.318,3.177-2.078c2.218-1.618,5.754-3.936,9.689-6.414c5.924-3.725,12.826-7.871,18.221-11.058
		c2.696-1.608,5.024-2.967,6.672-3.926c0.819-0.48,1.478-0.86,1.918-1.119c0.45-0.26,0.69-0.399,0.69-0.399l-8.081-14.006
		c-0.031,0.02-7.032,4.056-15.324,9.03c-4.146,2.498-8.611,5.204-12.707,7.792c-4.105,2.578-7.811,4.995-10.588,7.013
		c-4.485,3.247-9.071,4.534-13.725,4.555c-3.196,0-6.424-0.66-9.45-1.848c-4.555-1.788-8.63-4.824-11.378-8.291
		c-1.378-1.738-2.447-3.566-3.136-5.384c-0.69-1.818-1.039-3.606-1.048-5.354c0.019-1.998,0.439-3.956,1.478-6.054
		c1.039-2.088,2.737-4.345,5.474-6.653c1.479-1.258,3.536-3.146,6.234-5.654c9.31-8.751,25.702-24.774,39.817-38.649
		c13.376-13.146,24.654-24.334,25.803-25.462c4.905-4.385,10.498-10.129,16.792-16.593c9.529-9.829,20.578-21.297,32.105-31.496
		c11.528-10.219,23.585-19.119,34.543-23.894l3.476-1.509l1.049-3.636l0.009-0.03c0.161-0.589,4.056-13.665,9.81-26.122
		c2.847-6.213,6.214-12.277,9.43-16.272c1.578-2.018,3.127-3.477,4.255-4.246c0.58-0.38,1.019-0.589,1.318-0.699
		c0.3-0.1,0.44-0.11,0.52-0.11l0.12,0.01h0.021c3.376,0.75,6.703,2.318,9.81,4.385c4.654,3.098,8.71,7.292,11.487,10.69
		c1.389,1.698,2.467,3.186,3.177,4.215c0.359,0.519,0.619,0.918,0.779,1.178l0.18,0.279l0.02,0.04l2.696,4.496l5.194-0.629
		c1.639-0.19,3.377-0.3,5.185-0.3c9.5-0.02,21.278,2.847,33.394,8.84c18.211,8.981,37.16,24.884,51.485,47.569
		c14.305,22.696,24.105,52.164,24.124,88.745c0,18.32-2.487,38.439-8.121,60.366c-8.81,34.234-10.849,69.476-10.849,95.377
		c0,12.956,0.52,23.545,0.979,30.488h-22.885c-3.476-14.954-4.884-29.658-4.884-44.173c-0.01-25.122,4.186-49.676,8.881-73.551
		c4.675-23.885,9.869-47.07,11.497-69.675v-0.01c0.17-2.458,0.26-4.955,0.26-7.502c0-11.897-1.888-24.763-5.854-37.499
		c-5.953-19.08-16.572-37.97-32.855-52.274c-8.141-7.142-17.71-13.106-28.679-17.251c-10.948-4.146-23.296-6.473-36.931-6.463
		v16.172c15.754,0.01,28.859,3.526,39.887,9.33c8.281,4.366,15.404,10.04,21.478,16.662c9.11,9.919,15.842,21.956,20.258,34.453
		c4.435,12.487,6.533,25.422,6.523,36.87c0,2.178-0.08,4.295-0.22,6.363v-0.009c-1.478,20.907-6.483,43.593-11.238,67.717
		c-4.735,24.134-9.18,49.737-9.19,76.668c0,14.375,1.298,29.119,4.495,44.173H183.299
		C184.297,358.535,186.894,347.288,190.39,337.467z M432.211,495.827H149.514v-22.366l11.838-19.938h259.032l11.828,19.938V495.827z
		 M433.889,431.176c-0.748,1.259-1.717,2.318-2.817,3.237c-1.658,1.389-3.626,2.368-5.144,2.957c-0.22,0.09-0.409,0.15-0.6,0.22
		v-0.239H156.667v0.34c-0.34-0.121-0.7-0.251-1.119-0.41c-1.958-0.789-4.525-2.218-6.313-4.216
		c-0.899-1.008-1.639-2.128-2.197-3.506c-0.54-1.378-0.92-3.036-0.93-5.264c0.01-2.477,0.41-4.425,1.06-6.154
		c0.569-1.518,1.348-2.867,2.367-4.195c1.778-2.308,4.326-4.475,7.382-6.573c2.287-1.568,4.825-3.077,7.422-4.626
		c3.906-2.348,7.951-4.685,11.588-8.041c1.798-1.668,3.516-3.666,4.834-6.154c0.08-0.15,0.13-0.309,0.2-0.46h219.814
		c0.909,1.838,2.048,3.456,3.286,4.846c1.628,1.808,3.406,3.296,5.234,4.635c3.196,2.327,6.554,4.245,9.77,6.173
		c4.815,2.867,9.23,5.764,12.077,8.961c1.438,1.598,2.518,3.216,3.266,5.034c0.75,1.828,1.199,3.895,1.209,6.553
		C435.597,427.451,434.888,429.478,433.889,431.176z"/>
</g>
</svg>